<svg width="29" height="28" viewBox="0 0 29 28" fill="none" xmlns="http://www.w3.org/2000/svg"><path d="M10.2743 28C7.32041 27.1118 4.7309 25.3162 2.88296 22.8745C1.03502 20.4328 0.0251658 17.4726 0.000464192 14.4251C-0.0242375 11.3775 0.937507 8.40178 2.74563 5.93122C4.55375 3.46066 7.11382 1.62432 10.053 0.689637C12.9922 -0.245045 16.1569 -0.229252 19.0864 0.734717C22.0158 1.69869 24.5569 3.56048 26.3396 6.04896C28.1223 8.53744 29.0535 11.5226 28.9976 14.5698C28.9417 17.6169 27.9016 20.5668 26.0287 22.99L23.4771 21.0643C24.9287 19.1819 25.7337 16.8915 25.7749 14.5263C25.816 12.1612 25.0912 9.84481 23.7059 7.91443C22.3206 5.98404 20.3472 4.54042 18.0729 3.79373C15.7987 3.04705 13.3423 3.03627 11.0614 3.76298C8.78045 4.48968 6.79411 5.91593 5.39149 7.83409C3.98887 9.75225 3.2432 12.0622 3.26305 14.4276C3.2829 16.793 4.06722 19.0904 5.50183 20.9854C6.93644 22.8804 8.94644 24.274 11.2392 24.9633L10.2743 28Z" fill="#5F53C7"></path> <path d="M14.622 18.0647L16.4821 14.864H22.0195V8.53662H15.6084V14.2344L13.8341 17.2976H9.69043V22.1647H14.1235L16.5947 23.5561V27.5186H21.5263V22.6515H17.1468L14.622 21.223V18.0647Z" fill="#5F53C7"></path></svg>